<svg xmlns="http://www.w3.org/2000/svg" width="24" height="24" viewBox="0 0 24 24" fill="none"><path stroke="#64748b" stroke-width="1.75" stroke-linecap="round" stroke-linejoin="round" d="M2.25 13.5h3.86a2.25 2.25 0 012.012 1.244l.256.512a2.25 2.25 0 002.013 1.244h3.218a2.25 2.25 0 002.013-1.244l.256-.512a2.25 2.25 0 012.013-1.244h3.218a2.25 2.25 0 012.25 2.25v6.75a2.25 2.25 0 01-2.25 2.25H3.75a2.25 2.25 0 01-2.25-2.25V15.75a2.25 2.25 0 012.25-2.25z"/><path stroke="#64748b" stroke-width="1.75" stroke-linecap="round" stroke-linejoin="round" d="M3.75 3.75v4.5m0-4.5h4.5m-4.5 0L9 9"/></svg>
